<svg xmlns="http://www.w3.org/2000/svg" style="display: none;">
    <!-- Иконка с двумя стрелками (вверх-вниз) -->
    <symbol id="sort-both" viewBox="0 0 16 16" fill="none">
        <path d="M7.96719 5.3L7.02452 6.24267L5.33385 4.552V13.3333H4.00052V4.552L2.31052 6.24267L1.36719 5.3L4.66719 2L7.96719 5.3ZM14.6339 10.7L11.3339 14L8.03385 10.7L8.97652 9.75733L10.6679 11.448L10.6672 2.66667H12.0005V11.448L13.6912 9.75733L14.6339 10.7V10.7Z" fill="currentColor"/>
    </symbol>

    <!-- Иконка стрелки вверх -->
    <symbol id="sort-down" viewBox="0 0 16 16" fill="none">
        <path d="M8.66841 10.7814L12.2444 7.20535L13.1871 8.14802L8.00174 13.3334L2.81641 8.14802L3.75907 7.20535L7.33507 10.7814V2.66669H8.66841V10.7814Z" fill="currentColor"/>
    </symbol>

    <!-- Иконка стрелки вниз -->
    <symbol id="sort-up"  viewBox="0 0 16 16" fill="none">
        <path d="M8.66841 5.21869V13.3334H7.33507V5.21869L3.75907 8.79469L2.81641 7.85202L8.00174 2.66669L13.1871 7.85202L12.2444 8.79469L8.66841 5.21869Z" fill="currentColor"/>
    </symbol>

    <!-- Иконка звезды (скидка) -->
    <symbol id="discount" viewBox="0 0 16 16" fill="none">
        <path d="M7.26526 1.40002L13.8646 2.34336L14.8073 8.94336L8.67926 15.0714C8.55425 15.1963 8.38471 15.2665 8.20793 15.2665C8.03115 15.2665 7.86162 15.1963 7.7366 15.0714L1.1366 8.47136C1.01162 8.34634 0.941406 8.1768 0.941406 8.00002C0.941406 7.82325 1.01162 7.65371 1.1366 7.52869L7.26526 1.40002ZM7.7366 2.81469L2.5506 8.00002L8.20793 13.6567L13.3933 8.47136L12.6866 3.52136L7.7366 2.81469V2.81469ZM9.14993 7.05736C8.89983 6.80717 8.75936 6.46788 8.75942 6.11412C8.75946 5.93896 8.79399 5.76552 8.86105 5.6037C8.92811 5.44189 9.02638 5.29486 9.15026 5.17102C9.27414 5.04719 9.4212 4.94896 9.58304 4.88196C9.74488 4.81496 9.91834 4.78049 10.0935 4.78052C10.4473 4.78058 10.7865 4.92117 11.0366 5.17136C11.2867 5.42155 11.4272 5.76084 11.4271 6.11459C11.427 6.46835 11.2865 6.80759 11.0363 7.05769C10.7861 7.30779 10.4468 7.44826 10.093 7.4482C9.73927 7.44813 9.40003 7.30755 9.14993 7.05736V7.05736Z" fill="currentColor"/>
    </symbol>

</svg>